<svg xmlns="http://www.w3.org/2000/svg" viewBox="0 0 277.813 277.813" height="1050" width="1050">
    <path opacity=".72" fill="none" d="M0 0h277.813v277.813H0z"/>
    <path d="M213.337 51.093l40.132 23.532-40.135 23.533-40.132-23.532zm0 0" fill="#ff7300"/>
    <path d="M213.334 52.163l38.311 22.463-38.308 22.463-38.312-22.464zm0 0" fill="none" stroke="#000" stroke-width="1.9755679999999998"/>
    <path d="M176.852 72.486l40.132 23.532-40.135 23.533-40.132-23.532zm0 0" fill="#ff7300"/>
    <path d="M176.849 73.556l38.311 22.463-38.308 22.463-38.312-22.464zm0 0" fill="none" stroke="#000" stroke-width="1.9755679999999998"/>
    <path d="M140.367 93.88l40.132 23.53-40.135 23.534-40.132-23.532zm0 0" fill="#ff7300"/>
    <path d="M138.387 139.427l39.406-23.016v46.749l-39.406 23.015zm0 0" fill="#2159de"/>
    <path d="M100.87 115.379l40.1 23.278v47.021l-40.1-23.278zm0 0" fill="#fff"/>
    <path d="M140.364 94.948l38.311 22.464-38.308 22.463-38.312-22.464zm0 0" fill="none" stroke="#000" stroke-width="1.9755679999999998"/>
    <path d="M175.391 28.844l40.135 23.533-40.135 23.533-40.135-23.533zm0 0" fill="#ff7300"/>
    <path d="M175.388 29.913L213.7 52.377 175.39 74.84 137.08 52.375zm0 0" fill="none" stroke="#000" stroke-width="1.9755679999999998"/>
    <path d="M138.906 50.237l40.135 23.533-40.135 23.533L98.771 73.77zm0 0" fill="#ff7300"/>
    <path d="M138.903 51.306l38.312 22.464-38.309 22.462-38.311-22.464zm0 0" fill="none" stroke="#000" stroke-width="1.9755679999999998"/>
    <path d="M102.421 71.63l40.135 23.533-40.135 23.533-40.135-23.533zm0 0" fill="#ff7300"/>
    <path d="M102.418 72.7l38.312 22.463-38.309 22.462L64.11 95.161zm0 0" fill="none" stroke="#000" stroke-width="1.9755679999999998"/>
    <path d="M137.446 6.594l40.135 23.534-40.135 23.533L97.31 30.128zm0 0" fill="#ff7300"/>
    <path d="M137.446 7.665l38.308 22.463-38.308 22.462-38.309-22.462zm0 0" fill="none" stroke="#000" stroke-width="1.9755679999999998"/>
    <path d="M100.96 27.987l40.136 23.534-40.135 23.533L60.826 51.52zm0 0" fill="#ff7300"/>
    <path d="M100.96 29.058l38.31 22.463-38.31 22.462L62.653 51.52zm0 0" fill="none" stroke="#000" stroke-width="1.9755679999999998"/>
    <path d="M64.476 49.38l40.135 23.534-40.135 23.533L24.34 72.914zm0 0" fill="#ff7300"/>
    <path d="M64.476 50.451l38.308 22.463-38.308 22.462-38.309-22.462zm0 0" fill="none" stroke="#000" stroke-width="1.9755679999999998"/>
    <path d="M212.898 95.907l39.403-23.014v46.749l-39.403 23.013zm0 0" fill="#2159de"/>
    <path d="M213.792 96.445l37.615-21.97v44.628l-37.615 21.97zm0 0" fill="none" stroke="#000" stroke-width="1.9508734"/>
    <path d="M212.898 138.407l39.403-23.014v46.748l-39.403 23.014zm0 0" fill="#2159de"/>
    <path d="M213.792 138.945l37.615-21.97v44.628l-37.615 21.97zm0 0" fill="none" stroke="#000" stroke-width="1.9508734"/>
    <path d="M212.898 180.906l39.403-23.013v46.751l-39.403 23.014zm0 0" fill="#2159de"/>
    <path d="M213.792 181.448l37.615-21.97v44.625l-37.615 21.97zm0 0" fill="none" stroke="#000" stroke-width="1.9508734"/>
    <path d="M175.643 117.667l39.405-23.016V141.4l-39.405 23.015zm0 0" fill="#2159de"/>
    <path d="M176.537 118.205l37.615-21.97v44.628l-37.615 21.97zm0 0" fill="none" stroke="#000" stroke-width="1.9508734"/>
    <path d="M175.643 160.167l39.405-23.016V183.9l-39.405 23.015zm0 0" fill="#2159de"/>
    <path d="M176.537 160.705l37.615-21.97v44.628l-37.615 21.97zm0 0" fill="none" stroke="#000" stroke-width="1.9508734"/>
    <path d="M175.643 202.666l39.405-23.015v46.752l-39.405 23.015zm0 0" fill="#2159de"/>
    <path d="M176.537 203.208l37.615-21.97v44.624l-37.615 21.97zm0 0M139.284 139.964l37.612-21.969v44.628l-37.612 21.968zm0 0" fill="none" stroke="#000" stroke-width="1.9508734"/>
    <path d="M138.387 181.926l39.406-23.015v46.748l-39.406 23.016zm0 0" fill="#2159de"/>
    <path d="M139.284 182.463l37.612-21.968v44.628l-37.612 21.968zm0 0" fill="none" stroke="#000" stroke-width="1.9508734"/>
    <path d="M138.387 224.426l39.406-23.015v46.751l-39.406 23.016zm0 0" fill="#2159de"/>
    <path d="M139.284 224.966l37.612-21.968v44.624l-37.612 21.968zm0 0" fill="none" stroke="#000" stroke-width="1.9508734"/>
    <path d="M101.783 116.975l38.275 22.219v44.888l-38.275-22.219zm0 0" fill="none" stroke="#000" stroke-width="1.9738040999999997"/>
    <path d="M100.87 158.127l40.1 23.278v47.022l-40.1-23.279zm0 0" fill="#fff"/>
    <path d="M101.783 159.723l38.275 22.219v44.888l-38.275-22.219zm0 0" fill="none" stroke="#000" stroke-width="1.9738040999999997"/>
    <path d="M100.87 200.875l40.1 23.278v47.025l-40.1-23.278zm0 0" fill="#fff"/>
    <path d="M101.783 202.474l38.275 22.22v44.884l-38.275-22.219zm0 0" fill="none" stroke="#000" stroke-width="1.9738040999999997"/>
    <path d="M62.959 93.37l40.1 23.279v47.021l-40.1-23.278zm0 0" fill="#fff"/>
    <path d="M63.871 94.967l38.278 22.22v44.888l-38.278-22.22zm0 0" fill="none" stroke="#000" stroke-width="1.9738040999999997"/>
    <path d="M62.959 136.118l40.1 23.279v47.021l-40.1-23.278zm0 0" fill="#fff"/>
    <path d="M63.871 137.715l38.278 22.22v44.888l-38.278-22.22zm0 0" fill="none" stroke="#000" stroke-width="1.9738040999999997"/>
    <path d="M62.959 178.867l40.1 23.278v47.025l-40.1-23.279zm0 0" fill="#fff"/>
    <path d="M63.871 180.466l38.278 22.22v44.885l-38.278-22.22zm0 0" fill="none" stroke="#000" stroke-width="1.9738040999999997"/>
    <path d="M25.05 71.364L65.145 94.64v47.022L25.05 118.385zm0 0" fill="#fff"/>
    <path d="M25.96 72.959l38.277 22.22v44.888l-38.278-22.22zm0 0" fill="none" stroke="#000" stroke-width="1.9738040999999997"/>
    <path d="M25.05 114.112l40.096 23.276v47.022L25.05 161.133zm0 0" fill="#fff"/>
    <path d="M25.96 115.707l38.277 22.22v44.888l-38.278-22.22zm0 0" fill="none" stroke="#000" stroke-width="1.9738040999999997"/>
    <path d="M25.05 156.86l40.096 23.276v47.025L25.05 203.885zm0 0" fill="#fff"/>
    <path d="M25.96 158.458l38.277 22.22v44.885l-38.278-22.22zm0 0" fill="none" stroke="#000" stroke-width="1.9738040999999997"/>
</svg>
